<svg width="1218" height="465" viewBox="0 0 1218 465" fill="none" xmlns="http://www.w3.org/2000/svg">
<g filter="url(#filter0_dd_145_203)">
<path d="M360.5 424.4C359.4 424.2 356 423.5 353 422.9C344.5 421.2 334.8 415.6 328.5 408.8C318.7 398.2 315 387.9 315 370.4C315 337.8 334.6 311.9 367 301.9C373.4 299.9 376.6 299.5 388.5 299.6C401.1 299.6 403.2 299.9 409.9 302.2C427 308.4 437.9 320.4 442.5 338C443.8 343 444.1 347 443.7 355.5C442.7 375.5 436.6 389.4 423 403C409 417 393.5 423.6 373 424.5C367.2 424.7 361.6 424.7 360.5 424.4ZM387.9 386.5C405.5 377.6 410.4 346.9 395.7 337.2C392.5 335.1 390.2 334.4 384.5 334.2C378.3 333.8 376.5 334.2 371.7 336.5C361.2 341.4 355.2 351 354.3 364.2C353.5 375.2 356.1 381.4 363.5 386.7C365.2 387.8 367.6 389 369 389.3C374 390.4 383 389 387.9 386.5Z" fill="#EDAE5A"/>
<path d="M447 422.1C447 420.9 451.6 389.2 453.5 377.5C454.3 372.6 455.8 362.2 457 354.5C459 340.9 462 321.9 464.4 307.5L465.5 300.5L510.8 300.2L556.1 300L555.4 303.6C555 305.6 554 312.3 553.1 318.4L551.5 329.5L525.9 329.8C506 330 500 330.3 499.1 331.4C498.5 332.1 497.9 335.6 497.8 339.1L497.5 345.5H516.7C527.2 345.5 536.1 345.8 536.5 346.2C537.2 346.8 534.9 364.7 533.2 373L532.4 376.5L512.2 376.8C492.2 377 492 377.1 491.5 379.3C491.3 380.5 489.7 390.1 488 400.5C486.3 411 484.7 420.2 484.4 421.1C484 422.6 481.7 422.8 465.5 422.9C455.3 422.9 447 422.6 447 422.1Z" fill="#EDAE5A"/>
<path d="M548.8 421.5C548.5 421.2 548.7 418.6 549.2 415.7C549.6 412.9 551.8 398.6 554 384C565 310.3 566.4 301.2 567.4 300.2C568.5 299.2 656.7 298.6 657.3 299.7C657.6 300.1 656.7 307 655.4 315C654.1 323 653 329.6 653 329.8C653 329.9 641.3 330 627.1 330C612.8 330 600.9 330.3 600.7 330.8C600.4 331.2 599.9 334.5 599.5 338.3L598.8 345H618.9C635.7 345 639 345.2 639 346.4C639 349.5 634.7 374.5 634.1 375.2C633.8 375.6 624.6 376 613.7 376C594.3 376.1 594 376.2 593.5 378.3C593.2 379.5 591.6 389.5 589.9 400.4C588.3 411.4 586.7 420.7 586.4 421.2C585.8 422.1 549.7 422.3 548.8 421.5Z" fill="#EDAE5A"/>
<path d="M650.7 421.4C650.5 420.9 650.8 416.7 651.5 412C652.3 407.3 654.5 392.7 656.5 379.5C658.4 366.3 660.7 351.2 661.5 346C662.3 340.8 664.1 328.9 665.5 319.5C666.9 310.2 668.3 301.7 668.6 300.8C669.1 299.1 672.2 299 715.7 299H762.2L761.6 302.8C758.8 322 757.7 327.6 756.2 328.8C755 329.7 747.9 330 728.8 330C699.7 330 701.9 329.3 701.6 338.3L701.5 343.5L725.4 343.7C738.5 343.8 749.4 344.1 749.6 344.3C750.4 345.1 745.7 373.5 744.6 374.2C744 374.6 732.8 375 719.8 375C706.8 375 695.9 375.4 695.6 375.9C695.3 376.4 694.7 380 694.4 384L693.7 391.3L720.8 390.7L748 390V392.2C748 393.4 747.3 398.9 746.4 404.5C745.6 410 744.7 416 744.4 417.8L743.9 421H710.2C691.7 421.1 670.8 421.3 663.9 421.6C656.9 422 651 421.8 650.7 421.4Z" fill="#EDAE5A"/>
<path d="M840.4 421.1C827.4 417.9 816 406.8 810.9 392.1C809.5 387.8 809.1 387.5 805.5 387.2C803.4 387 801.4 387.2 800.9 387.7C799.9 388.7 798.4 395.9 796.4 409.3C795.7 414.7 794.8 419.6 794.5 420.1C794.1 420.6 785.7 421 775.4 421C758.5 421 757 420.9 757 419.3C757 417.6 759.6 400.4 763.5 375C765.5 361.7 769.4 335.9 772 317.6C773.9 305.1 774.9 299.1 775.4 298.9C775.4 298.9 789.5 298.6 806.6 298.3C841.4 297.8 849 298.4 858.5 302.9C870.7 308.7 877.1 318.6 877.8 333C878.3 343.3 877 350.1 873 358.6C868.6 367.8 861.6 374.9 852.5 379.5C848.4 381.6 845 383.7 845 384.1C845 385.6 851.2 390 854.9 391.1C857 391.7 862.2 392.1 866.5 391.8L874.2 391.5L873.7 395.5C870.3 421.5 870.6 420.5 864.4 421.4C858.4 422.2 844.4 422 840.4 421.1ZM830.7 354.3C836.4 351.3 838.5 347.8 838.4 341.5C838.4 334.9 836.6 332.6 830.5 331.1C824.4 329.6 810.5 329.7 809.2 331.3C807.8 333 804.6 353.5 805.4 355.6C806 357.1 807.3 357.2 816.5 356.8C824.1 356.4 828 355.7 830.7 354.3Z" fill="#EDAE5A"/>
<path d="M908.5 370.3C908.9 367.8 909.6 364.6 910.1 363.2L911 360.8L1035.8 361.1C1104.4 361.3 1162.2 361.7 1164.3 361.9C1168.6 362.3 1168.4 361.6 1165.9 371.3L1164.9 375H1036.3H907.8L908.5 370.3Z" fill="#EDAE5A"/>
<path d="M4.49987 372.1C3.79987 370.9 5.89987 362 7.39987 360.1C8.29987 358.9 27.6999 358.8 136 359.4C206.1 359.8 263.6 360.3 263.7 360.4C263.9 360.6 263.4 363.3 262.7 366.6L261.3 372.5L133.2 372.8C52.8999 372.9 4.89987 372.7 4.49987 372.1Z" fill="#EDAE5A"/>
<path d="M1064 283.5C1064 279.8 1066.4 278.5 1067.2 281.8C1067.8 284.5 1067 287 1065.4 287C1064.5 287 1064 285.9 1064 283.5Z" fill="#EDAE5A"/>
<path d="M1064 273.5C1064 270.7 1064.4 270 1066 270C1067.6 270 1067.9 270.6 1067.8 273.5C1067.7 276.2 1067.2 277 1065.8 277C1064.4 277 1064 276.2 1064 273.5Z" fill="#EDAE5A"/>
<path d="M998 261C998 258.3 998.2 258.1 999.9 259.2C1001.4 260.1 1002.2 260.1 1003.4 259.1C1004.8 257.9 1005 258.1 1005 260.9C1005 263.8 1004.8 264 1001.5 264C998.3 264 998 263.8 998 261Z" fill="#EDAE5A"/>
<path d="M1013.8 248.7C1014.7 247.7 1014.5 246.8 1013.4 245.2C1011.9 243.1 1012 243 1014.9 243C1017.8 243 1018 243.3 1018 246.5C1018 249.6 1017.7 250 1015.4 250C1013.3 250 1013 249.7 1013.8 248.7Z" fill="#EDAE5A"/>
<path d="M64.9999 196.5C64.9999 193.7 65.4999 192.9 67.2999 192.5C68.4999 192.2 91.5999 192.1 118.5 192.2L167.5 192.5V196V199.5L116.3 199.8L64.9999 200V196.5Z" fill="#EDAE5A"/>
<path d="M1014.5 110.9C1014.9 110.3 1014.2 108.8 1012.9 107.4L1010.7 105H1014.3C1017.9 105 1018 105.1 1018 108.5C1018 111.4 1017.6 112 1015.9 112C1014.7 112 1014.2 111.6 1014.5 110.9Z" fill="#EDAE5A"/>
<path d="M1152.8 108.7C1154 107.4 1155 105.8 1155 105.2C1155 104.5 1155.7 104 1156.5 104C1157.5 104 1158 105.1 1158 107.5C1158 110.9 1157.9 111 1154.3 111H1150.7L1152.8 108.7Z" fill="#EDAE5A"/>
<path d="M333.2 99.2C331.5 98.9 331 98.3 331.3 97.2C331.6 96.3 332.4 93.3 333.1 90.6L334.5 85.8L557.3 86.1L780.2 86.5L779.7 89.6C779.4 91.2 778.5 94.3 777.6 96.4L776 100.2L555.8 99.9C434.6 99.7 334.4 99.4 333.2 99.2Z" fill="#EDAE5A"/>
<path d="M417.7 456C272.3 455.7 198 455.2 197.9 454.5C197.9 454 198.1 451.3 198.5 448.6L199.1 443.7L580.3 444.5C790 444.9 961.7 445.4 961.9 445.6C962.1 445.8 961.9 448.3 961.4 451.2L960.5 456.5H799C710.2 456.5 538.6 456.3 417.7 456Z" fill="#FEFEFE"/>
<path d="M460.3 422.3C461.8 422.1 464 422.1 465.3 422.3C466.5 422.5 465.3 422.7 462.5 422.7C459.8 422.7 458.7 422.5 460.3 422.3Z" fill="#FEFEFE"/>
<path d="M474.3 422.3C475.8 422.1 478.2 422.1 479.8 422.3C481.3 422.5 480 422.7 477 422.7C474 422.7 472.7 422.5 474.3 422.3Z" fill="#FEFEFE"/>
<path d="M658.3 421.3C659.2 421.1 660.8 421.1 661.8 421.3C662.7 421.6 661.9 421.8 660 421.8C658.1 421.8 657.3 421.6 658.3 421.3Z" fill="#FEFEFE"/>
<path d="M665.3 421.3C666.2 421.1 667.8 421.1 668.8 421.3C669.7 421.6 668.9 421.8 667 421.8C665.1 421.8 664.3 421.6 665.3 421.3Z" fill="#FEFEFE"/>
<path d="M736.3 390.3C737.8 390.1 740.2 390.1 741.8 390.3C743.3 390.5 742 390.7 739 390.7C736 390.7 734.7 390.5 736.3 390.3Z" fill="#FEFEFE"/>
<path d="M748.8 329.3C750 329.1 752 329.1 753.3 329.3C754.5 329.5 753.5 329.7 751 329.7C748.5 329.7 747.5 329.5 748.8 329.3Z" fill="#FEFEFE"/>
<path d="M1052 317.4C1046.8 316.6 1038.5 314.8 1033.5 313.5C1022.3 310.4 1002.8 300.8 993.5 293.8C984.3 286.9 968.7 271.3 962.3 262.6C943.3 236.8 933.9 205.6 935.3 172.6C936.9 133.5 953.5 98.6999 983.3 72.1999C1001.6 55.9999 1020.6 46.5999 1047 40.9999C1061.8 37.7999 1086 37.6999 1100.8 40.8999C1114.5 43.7999 1134.7 50.9999 1143.4 56.0999C1182 78.6999 1207.6 117.7 1213.1 162C1214.5 173.6 1213.7 195.7 1211.5 206C1199.9 261 1157.6 304.9 1106 315.7C1091 318.8 1066 319.6 1052 317.4ZM1080.1 287.9C1080.1 287.4 1080.2 283.1 1080.2 278.3L1080.3 269.5L1074.1 269.2C1069.6 269 1068 269.3 1067.9 270.2C1067.9 270.9 1067.6 274.4 1067.4 277.9C1067.1 281.4 1067.1 285.3 1067.4 286.6C1068 288.8 1068.5 288.9 1074 288.9C1077.3 288.8 1080 288.4 1080.1 287.9ZM1010.7 242.3L1006 237.5L999.5 244C995.9 247.5 993 250.9 993 251.4C993 252 994.9 254.4 997.2 256.7L1001.4 261L1008.5 254L1015.5 247L1010.7 242.3ZM1148.8 245.3L1142 238.6L1137.5 243L1133 247.4L1139.7 254.2L1146.5 261L1151 256.5L1155.5 252L1148.8 245.3ZM1111.5 175C1129.7 169.4 1144.9 164.4 1145.4 164C1146.5 162.9 1143.2 152 1141.7 152C1141 152 1127.4 156 1111.4 161C1095.3 165.9 1081.9 170 1081.6 170C1081.3 170 1081 155.2 1081 137V104H1074.5H1068V138.9C1068 158.1 1067.7 175.1 1067.4 176.8C1066.9 179.4 1067.3 180.4 1069.9 183.1C1072.3 185.5 1073.7 186.1 1075.8 185.7C1077.3 185.5 1093.4 180.6 1111.5 175ZM1182.8 179.3L1182.5 172.5L1173.3 172.2L1164 171.9V179V186H1173.5H1183.1L1182.8 179.3ZM985 178.5V172H975.5H966V178.5V185H975.5H985V178.5ZM1015 109.9C1015 109.1 1003.3 97.6999 1002.1 97.1999C1001.2 96.8999 993 103.9 993 105C993 105.5 996 108.8 999.7 112.5L1006.3 119.1L1010.7 114.9C1013 112.5 1015 110.3 1015 109.9ZM1148.8 112.8C1152.2 109.5 1155 106.2 1155 105.5C1155 104.9 1153.2 102.6 1151 100.5L1147 96.5999L1140.5 103C1136.9 106.5 1134 109.9 1134 110.4C1134 111.5 1141 119 1142 119C1142.4 119 1145.5 116.2 1148.8 112.8ZM1081 78.4999V68.9999H1074.5H1068V78.4999V87.9999H1074.5H1081V78.4999Z" fill="#FEFEFE"/>
<path d="M724.3 260.3L680 260V257.2C680.1 253.8 699.5 138.1 700.2 137.5C700.5 137.2 721.2 137.3 746.4 137.6L792 138.3V141.4C792 143.1 791.1 149.6 790 155.9C788.9 162.1 788 167.7 788 168.2C788 168.8 777.5 169 761 168.9C744.9 168.8 733.5 169.1 733 169.6C732.4 170.2 731.7 173.4 731.4 176.8L730.7 183H755.4C768.9 183 780 183.3 780 183.8C780 184.2 778.9 191 777.5 199C776.1 207 775 213.7 775 213.9C775 214.1 763.9 214.1 750.3 213.9L725.5 213.5L724.1 220.7C723.3 224.7 722.8 228.2 723.1 228.4C723.4 228.7 735.6 229.2 750.3 229.6L777 230.3V232.8C777 235.8 773.1 259 772.4 260.2C772.1 260.6 771.1 260.9 770.2 260.8C769.3 260.6 748.6 260.4 724.3 260.3Z" fill="#FEFEFE"/>
<path d="M786 259.5C786 256.6 805.2 142.6 806.1 140.2L807 137.9L838.7 138.6C873.4 139.3 880.4 140.1 890.6 144.9C908.9 153.5 917.3 171.2 915 196.4C911.9 228.6 895.7 249.5 867 258.1C859.9 260.2 857.3 260.4 822.8 260.8C789.4 261.1 786 261 786 259.5ZM856.7 227C864.2 223.7 867.8 220.2 871.6 212.4C874.8 206 875.3 203.9 875.7 195.8C876.2 187 876 186.2 873.3 181.1C869.2 173.3 865.3 171.5 851 170.5C844.8 170.1 839.4 170.2 838.9 170.7C838.2 171.4 829 223.7 829 227.3C829 229.4 832.6 229.9 843.5 229.4C849.2 229.1 854 228.2 856.7 227Z" fill="#FEFEFE"/>
<path d="M596.7 258.3C596.5 257.8 599.6 238.2 603.6 214.5C607.6 190.9 610.9 170.8 610.9 169.9C611 168.4 609.1 168.2 595.1 167.9C586.3 167.7 579 167.3 578.7 167C578.5 166.7 579.4 159.8 580.9 151.5L583.5 136.5L636 136.9C664.9 137.1 688.7 137.4 688.9 137.6C689.3 138 685.4 162.6 684.4 166.2C683.9 167.8 682 168 666.7 168.2L649.5 168.5L642 213.5L634.4 258.5L615.8 258.8C605.5 258.9 597 258.7 596.7 258.3Z" fill="#FEFEFE"/>
<path d="M465.8 257.3C462.8 257 462 256.5 462 254.9C462 252.7 470.8 199.6 471.6 196.8C471.9 195.8 471.8 195 471.3 195C470.9 195 462.4 202.7 452.5 212C442.7 221.4 434.1 229 433.5 229C431.8 229 429.5 226.1 417.5 209.3C411.5 200.9 406.4 194.3 406.1 194.6C405.8 194.8 403.3 208.9 400.5 225.8L395.3 256.5L377.6 256.3C367.8 256.2 359.6 255.9 359.3 255.6C358.9 255.3 376.3 148.1 378.6 136.7L379.2 133.9L393.3 134.2L407.5 134.5L422.3 156C430.5 167.8 437.5 178.1 437.9 178.9C438.5 179.8 439.2 180 440.3 179.4C441.2 178.9 451.9 168.7 464 156.7L486.1 135H501.5C510 135 517.1 135.3 517.3 135.8C517.6 136.2 513.2 163.7 507.6 197L497.4 257.5L483.5 257.6C475.8 257.6 467.8 257.5 465.8 257.3Z" fill="#FEFEFE"/>
<path d="M515 256.1C515 252.8 532.4 147.9 534.5 138.3C535 136 535.2 136 554 136H572.9L572.3 139.8C572 141.8 570.1 153.6 568 166C565.9 178.4 561.6 204.1 558.4 223.3L552.7 258H533.8C515.9 258 515 257.9 515 256.1Z" fill="#FEFEFE"/>
<path d="M235.5 255C216.3 254.7 200.3 254.3 200.1 254.2C199.9 254.1 200 253.4 200.3 252.8C200.5 252.1 205.1 225.2 210.5 193C215.9 160.8 220.6 134.1 221.1 133.6C221.8 132.9 257 132.6 257.7 133.4C257.9 133.6 254.7 153.8 250.5 178.5C246.4 203.1 243.3 223.6 243.6 224.1C243.9 224.6 256.1 225 271.1 225C294.7 225 298 225.2 298 226.5C298 228 294.5 249 293.5 253.8C293 255.9 292.6 256 281.7 255.8C275.6 255.7 254.8 255.3 235.5 255Z" fill="#FEFEFE"/>
<path d="M304 254.5C304 252.1 323 138.7 323.9 136L324.7 133.5L343.1 133.9C353.2 134.1 361.6 134.3 361.8 134.5C362 134.6 357.6 161.6 352 194.3C346.5 227.1 342 254.4 342 254.9C342 255.6 335.6 256 323 256C307 256 304 255.8 304 254.5Z" fill="#FEFEFE"/>
<path d="M670.3 86.2999C672.3 86.0999 675.7 86.0999 677.8 86.2999C679.8 86.4999 678.1 86.6999 674 86.6999C669.9 86.6999 668.2 86.4999 670.3 86.2999Z" fill="#FEFEFE"/>
<path d="M771.3 86.2999C772.2 86.0999 773.8 86.0999 774.8 86.2999C775.7 86.5999 774.9 86.7999 773 86.7999C771.1 86.7999 770.3 86.5999 771.3 86.2999Z" fill="#FEFEFE"/>
<path d="M948 71.4001L939.5 62.8001L949.9 53.0001L960.4 43.1001L968.4 50.4001C972.9 54.5001 976.5 58.2001 976.5 58.8001C976.5 59.7001 957.7 80.0001 956.8 80.0001C956.6 80.0001 952.6 76.1001 948 71.4001Z" fill="#FEFEFE"/>
<path d="M1182.7 70.2C1177.4 64.9 1173 60 1173 59.5C1173 58.9 1176.6 54.9 1180.9 50.6L1188.9 42.7L1198.9 51.9C1204.5 57 1209 62 1209 62.9C1209 64.3 1194.3 80 1193 80C1192.7 80 1188.1 75.6 1182.7 70.2Z" fill="#FEFEFE"/>
<path d="M1060 19.1V13.1L1054.8 12.8L1049.5 12.5L1049.2 6.90002L1048.9 1.30002L1053.7 0.800018C1057.9 0.400018 1067.7 0.400018 1093.8 0.900018L1100 1.00002V7.00002V13H1095.1C1089.5 13 1089 13.7 1089 20.6V25H1074.5H1060V19.1Z" fill="#FEFEFE"/>
</g>
<defs>
<filter id="filter0_dd_145_203" x="0.361084" y="0.511475" width="1217.44" height="463.989" filterUnits="userSpaceOnUse" color-interpolation-filters="sRGB">
<feFlood flood-opacity="0" result="BackgroundImageFix"/>
<feColorMatrix in="SourceAlpha" type="matrix" values="0 0 0 0 0 0 0 0 0 0 0 0 0 0 0 0 0 0 127 0" result="hardAlpha"/>
<feOffset dy="4"/>
<feGaussianBlur stdDeviation="2"/>
<feComposite in2="hardAlpha" operator="out"/>
<feColorMatrix type="matrix" values="0 0 0 0 0 0 0 0 0 0 0 0 0 0 0 0 0 0 0.25 0"/>
<feBlend mode="normal" in2="BackgroundImageFix" result="effect1_dropShadow_145_203"/>
<feColorMatrix in="SourceAlpha" type="matrix" values="0 0 0 0 0 0 0 0 0 0 0 0 0 0 0 0 0 0 127 0" result="hardAlpha"/>
<feOffset dy="4"/>
<feGaussianBlur stdDeviation="2"/>
<feComposite in2="hardAlpha" operator="out"/>
<feColorMatrix type="matrix" values="0 0 0 0 0 0 0 0 0 0 0 0 0 0 0 0 0 0 0.25 0"/>
<feBlend mode="normal" in2="effect1_dropShadow_145_203" result="effect2_dropShadow_145_203"/>
<feBlend mode="normal" in="SourceGraphic" in2="effect2_dropShadow_145_203" result="shape"/>
</filter>
</defs>
</svg>
