<svg width="1251" height="374" viewBox="0 0 1251 374" fill="none" xmlns="http://www.w3.org/2000/svg">
<path d="M142.593 302.865C141.419 302.562 137.935 300.934 134.83 299.23C110.33 285.711 91.3212 274.843 68.0709 261.098C62.9589 258.068 57.3546 254.736 55.5748 253.714C51.1444 251.101 50.0463 250.192 48.3044 247.844C45.8052 244.474 44.9343 242.051 44.5556 237.545C44.139 232.319 44.139 191.612 44.5177 191.801C44.7071 191.877 50.9551 195.399 58.377 199.678L71.9333 207.44L71.6683 220.126C71.5168 227.093 71.3653 232.963 71.3275 233.152C71.2139 234.023 88.2539 243.452 119.002 259.545C134.452 267.611 141.987 271.36 143.426 271.663C146.001 272.231 151.302 271.89 153.801 271.019C155.619 270.413 186.291 254.433 197.386 248.337C201.968 245.837 210.564 240.915 218.099 236.446C219.084 235.878 219.084 235.803 219.349 230.35C219.841 218.763 220.182 214.749 220.712 214.256C221.015 213.991 225.597 210.848 230.898 207.251C236.2 203.654 242.902 199.072 245.78 197.141C248.658 195.172 251.081 193.619 251.157 193.695C251.233 193.771 251.157 204.903 251.044 218.422L250.779 243.035L249.68 244.929C247.673 248.337 244.455 251.101 237.904 254.925C196.818 279.122 158.043 301.047 154.029 302.411C151.264 303.357 145.433 303.584 142.593 302.865Z" fill="white"/>
<path d="M26.6066 253.07C25.7736 252.464 19.4877 248.147 12.5959 243.49L0.0998397 235.008L0.024106 211.379C-0.0516277 198.39 0.0619729 183.357 0.21344 178.018L0.478508 168.286L3.31852 169.914C4.87106 170.785 11.2327 174.383 17.4429 177.866L28.6893 184.228V219.217C28.6893 238.453 28.5757 254.206 28.4243 254.206C28.2349 254.168 27.4397 253.676 26.6066 253.07Z" fill="white"/>
<path d="M275.771 233.795C274.029 233.341 272.476 232.432 271.151 231.031C268.765 228.57 268.765 228.418 268.765 212.666C268.765 196.648 268.765 196.648 271.567 194.035L272.93 192.71V177.98C272.93 164.916 272.855 163.287 272.362 163.704C271.87 164.082 271.794 164.045 271.794 163.287C271.794 162.53 272.514 161.962 276.49 159.841C280.807 157.456 283.155 156.698 283.155 157.645C283.155 157.872 283.003 158.024 282.776 158.024C282.511 158.024 282.397 164.045 282.397 175.291V192.558L284.101 194.452C285.01 195.474 285.957 196.951 286.184 197.708C286.676 199.526 286.676 225.919 286.184 227.737C285.692 229.441 283.457 232.091 281.678 232.962C280.049 233.795 277.323 234.174 275.771 233.795Z" fill="white"/>
<path d="M140.851 231.41C136.648 230.426 130.627 227.283 120.138 220.694C102.643 209.713 83.0662 198.277 52.3562 181.047C25.8873 166.166 2.22048 152.609 2.18262 152.268C2.18262 151.852 37.0201 131.517 101.015 94.7108C134.603 75.3987 141.571 71.4606 143.691 70.779C144.827 70.4003 146.834 70.1353 148.538 70.1353H151.454L168.38 79.7534C185.345 89.4474 232.527 116.636 271.908 139.469C283.495 146.172 293 151.814 293 151.966C293 152.306 279.671 159.918 273.499 163.136C259.526 170.445 248.507 177.185 238.51 184.645C228.286 192.294 218.781 195.475 207.8 194.982C200.832 194.679 195.531 193.468 187.541 190.287C180.27 187.409 174.628 184.266 150.621 169.952C144.259 166.166 135.663 161.054 131.498 158.592C127.333 156.131 123.622 153.897 123.243 153.632C122.599 153.215 123.016 152.761 127.408 148.936C135.247 142.082 139.223 139.583 143.691 138.712C148.424 137.765 153.991 139.735 165.616 146.437C169.327 148.558 176.484 152.685 181.482 155.563C200.908 166.734 205.982 168.627 212.457 166.923C216.698 165.825 220.258 163.704 229.687 156.547C237.071 150.981 236.73 151.246 236.541 151.057C236.313 150.867 196.856 127.996 181.482 119.135C174.628 115.159 164.897 109.555 159.898 106.677L150.81 101.413H148.349C146.38 101.413 145.395 101.678 143.426 102.587C139.336 104.518 57.7333 151.398 57.544 151.89C57.5061 152.041 60.2325 153.783 63.6027 155.752C67.0107 157.721 75.4929 162.644 82.4604 166.771C105.976 180.555 123.432 190.779 149.295 205.926C163.458 214.181 175.196 221.11 175.348 221.262C175.651 221.527 162.624 229.025 159.898 230.161C154.635 232.319 146.758 232.849 140.851 231.41Z" fill="#EDAE5A"/>
<path d="M414.846 68.4413H454.472V246H414.846V68.4413ZM669.912 134.232L621.902 231.267H598.278L550.523 134.232V246H510.896V68.4413H564.494L610.217 165.984L656.195 68.4413H709.538V246H669.912V134.232ZM893.981 68.4413V103.75H805.583V140.328H885.091V174.113H805.583V210.945H896.776V246H765.956V68.4413H893.981ZM1020.05 102.734V246H980.423V102.734H930.127V68.4413H1070.35V102.734H1020.05ZM1167.77 99.1775C1161.17 99.1775 1155.92 100.786 1152.02 104.004C1148.3 107.052 1146.43 111.201 1146.43 116.451C1146.43 121.531 1148.72 125.595 1153.29 128.644C1158.03 131.692 1168.79 135.333 1185.55 139.566C1202.49 143.631 1215.61 149.812 1224.93 158.11C1234.24 166.408 1238.9 178.516 1238.9 194.434C1238.9 210.353 1232.88 223.308 1220.86 233.299C1209.01 243.121 1193.34 248.032 1173.87 248.032C1145.76 248.032 1120.44 237.617 1097.92 216.788L1121.54 187.83C1140.68 204.595 1158.37 212.978 1174.63 212.978C1181.91 212.978 1187.58 211.454 1191.65 208.405C1195.88 205.188 1198 200.954 1198 195.704C1198 190.285 1195.8 186.052 1191.4 183.003C1186.99 179.786 1178.27 176.568 1165.23 173.351C1144.57 168.44 1129.41 162.089 1119.76 154.299C1110.28 146.34 1105.54 133.978 1105.54 117.213C1105.54 100.278 1111.55 87.2386 1123.57 78.094C1135.77 68.9493 1150.92 64.377 1169.04 64.377C1180.9 64.377 1192.75 66.4091 1204.6 70.4734C1216.46 74.5377 1226.79 80.2954 1235.59 87.7467L1215.53 116.705C1200.12 105.02 1184.2 99.1775 1167.77 99.1775Z" fill="white"/>
<path d="M429.7 336.663C429.7 334.823 430.46 333.277 431.98 332.023C433.527 330.743 435.513 330.103 437.94 330.103C440.393 330.103 442.313 330.73 443.7 331.983C445.087 333.21 445.847 334.903 445.98 337.063H442.22C442.167 335.837 441.753 334.85 440.98 334.103C440.207 333.357 439.127 332.983 437.74 332.983C436.38 332.983 435.3 333.317 434.5 333.983C433.727 334.623 433.34 335.463 433.34 336.503C433.34 337.517 433.78 338.303 434.66 338.863C435.567 339.423 436.647 339.837 437.9 340.103C439.18 340.343 440.447 340.637 441.7 340.983C442.98 341.303 444.06 341.93 444.94 342.863C445.847 343.77 446.3 345.077 446.3 346.783C446.3 348.463 445.527 349.89 443.98 351.063C442.46 352.21 440.473 352.783 438.02 352.783C435.567 352.783 433.593 352.17 432.1 350.943C430.633 349.717 429.833 348.023 429.7 345.863H433.46C433.513 347.09 433.94 348.077 434.74 348.823C435.567 349.543 436.687 349.903 438.1 349.903C439.54 349.903 440.66 349.597 441.46 348.983C442.287 348.37 442.7 347.597 442.7 346.663C442.7 345.703 442.38 344.943 441.74 344.383C441.1 343.823 440.3 343.437 439.34 343.223C438.38 343.01 437.327 342.757 436.18 342.463C435.06 342.17 434.02 341.863 433.06 341.543C432.1 341.197 431.3 340.61 430.66 339.783C430.02 338.957 429.7 337.917 429.7 336.663ZM485.555 352.783C482.408 352.783 479.848 351.743 477.875 349.663C475.901 347.583 474.915 344.85 474.915 341.463C474.915 338.05 475.901 335.303 477.875 333.223C479.848 331.143 482.408 330.103 485.555 330.103C488.195 330.103 490.341 330.717 491.995 331.943C493.675 333.17 494.848 334.917 495.515 337.183H491.595C491.168 335.903 490.435 334.903 489.395 334.183C488.355 333.463 487.075 333.103 485.555 333.103C483.475 333.103 481.795 333.837 480.515 335.303C479.261 336.743 478.635 338.797 478.635 341.463C478.635 344.103 479.261 346.157 480.515 347.623C481.795 349.063 483.475 349.783 485.555 349.783C488.675 349.783 490.688 348.423 491.595 345.703H495.515C494.848 347.863 493.661 349.583 491.955 350.863C490.275 352.143 488.141 352.783 485.555 352.783ZM528.779 322.823V334.023C530.272 331.41 532.659 330.103 535.939 330.103C538.366 330.103 540.392 330.917 542.019 332.543C543.646 334.143 544.459 336.437 544.459 339.423V352.423H540.859V340.023C540.859 337.81 540.326 336.13 539.259 334.983C538.192 333.837 536.712 333.263 534.819 333.263C532.952 333.263 531.472 333.837 530.379 334.983C529.312 336.13 528.779 337.81 528.779 340.023V352.423H525.139V322.823H528.779ZM584.416 349.783C586.47 349.783 588.243 349.05 589.736 347.583C591.256 346.09 592.016 344.037 592.016 341.423C592.016 338.81 591.296 336.77 589.856 335.303C588.416 333.837 586.656 333.103 584.576 333.103C582.523 333.103 580.803 333.837 579.416 335.303C578.03 336.77 577.336 338.823 577.336 341.463C577.336 344.077 578.003 346.117 579.336 347.583C580.67 349.05 582.363 349.783 584.416 349.783ZM576.616 349.663C574.616 347.583 573.616 344.85 573.616 341.463C573.616 338.077 574.67 335.343 576.776 333.263C578.883 331.157 581.523 330.103 584.696 330.103C587.87 330.103 590.51 331.157 592.616 333.263C594.723 335.343 595.776 338.077 595.776 341.463C595.776 344.823 594.67 347.557 592.456 349.663C590.27 351.743 587.59 352.783 584.416 352.783C581.243 352.783 578.643 351.743 576.616 349.663ZM634.49 349.783C636.543 349.783 638.316 349.05 639.81 347.583C641.33 346.09 642.09 344.037 642.09 341.423C642.09 338.81 641.37 336.77 639.93 335.303C638.49 333.837 636.73 333.103 634.65 333.103C632.596 333.103 630.876 333.837 629.49 335.303C628.103 336.77 627.41 338.823 627.41 341.463C627.41 344.077 628.076 346.117 629.41 347.583C630.743 349.05 632.436 349.783 634.49 349.783ZM626.69 349.663C624.69 347.583 623.69 344.85 623.69 341.463C623.69 338.077 624.743 335.343 626.85 333.263C628.956 331.157 631.596 330.103 634.77 330.103C637.943 330.103 640.583 331.157 642.69 333.263C644.796 335.343 645.85 338.077 645.85 341.463C645.85 344.823 644.743 347.557 642.53 349.663C640.343 351.743 637.663 352.783 634.49 352.783C631.316 352.783 628.716 351.743 626.69 349.663ZM675.203 352.423V322.823H678.843V352.423H675.203ZM755.804 349.783C757.857 349.783 759.63 349.05 761.124 347.583C762.644 346.09 763.404 344.037 763.404 341.423C763.404 338.81 762.684 336.77 761.244 335.303C759.804 333.837 758.044 333.103 755.964 333.103C753.91 333.103 752.19 333.837 750.804 335.303C749.417 336.77 748.724 338.823 748.724 341.463C748.724 344.077 749.39 346.117 750.724 347.583C752.057 349.05 753.75 349.783 755.804 349.783ZM748.004 349.663C746.004 347.583 745.004 344.85 745.004 341.463C745.004 338.077 746.057 335.343 748.164 333.263C750.27 331.157 752.91 330.103 756.084 330.103C759.257 330.103 761.897 331.157 764.004 333.263C766.11 335.343 767.164 338.077 767.164 341.463C767.164 344.823 766.057 347.557 763.844 349.663C761.657 351.743 758.977 352.783 755.804 352.783C752.63 352.783 750.03 351.743 748.004 349.663ZM805.557 330.463V333.423H800.957V352.423H797.277V333.423H794.437V330.463H797.277V328.623C797.277 326.223 797.917 324.477 799.197 323.383C800.477 322.29 802.491 321.743 805.237 321.743V324.703C803.637 324.703 802.517 325.01 801.877 325.623C801.264 326.21 800.957 327.21 800.957 328.623V330.463H805.557ZM882.353 349.663C884.406 349.663 886.153 348.903 887.593 347.383C889.059 345.837 889.793 343.823 889.793 341.343C889.793 338.837 889.059 336.863 887.593 335.423C886.153 333.983 884.406 333.263 882.353 333.263C880.326 333.263 878.579 334.01 877.113 335.503C875.673 336.997 874.953 338.983 874.953 341.463C874.953 343.917 875.673 345.903 877.113 347.423C878.579 348.917 880.326 349.663 882.353 349.663ZM883.073 330.103C886.086 330.103 888.579 331.143 890.553 333.223C892.553 335.277 893.553 337.983 893.553 341.343C893.553 344.677 892.553 347.423 890.553 349.583C888.553 351.717 886.059 352.783 883.073 352.783C881.206 352.783 879.566 352.343 878.153 351.463C876.766 350.557 875.699 349.383 874.953 347.943V352.423H871.313V322.823H874.953V334.863C875.699 333.45 876.766 332.303 878.153 331.423C879.566 330.543 881.206 330.103 883.073 330.103ZM938.389 330.463H942.029V352.423H938.389V348.903C936.923 351.49 934.536 352.783 931.229 352.783C928.803 352.783 926.776 351.983 925.149 350.383C923.523 348.757 922.709 346.463 922.709 343.503V330.463H926.309V342.903C926.309 345.09 926.843 346.77 927.909 347.943C929.003 349.09 930.483 349.663 932.349 349.663C934.216 349.663 935.683 349.09 936.749 347.943C937.843 346.77 938.389 345.09 938.389 342.903V330.463ZM972.027 336.663C972.027 334.823 972.787 333.277 974.307 332.023C975.853 330.743 977.84 330.103 980.267 330.103C982.72 330.103 984.64 330.73 986.027 331.983C987.413 333.21 988.173 334.903 988.307 337.063H984.547C984.493 335.837 984.08 334.85 983.307 334.103C982.533 333.357 981.453 332.983 980.067 332.983C978.707 332.983 977.627 333.317 976.827 333.983C976.053 334.623 975.667 335.463 975.667 336.503C975.667 337.517 976.107 338.303 976.987 338.863C977.893 339.423 978.973 339.837 980.227 340.103C981.507 340.343 982.773 340.637 984.027 340.983C985.307 341.303 986.387 341.93 987.267 342.863C988.173 343.77 988.627 345.077 988.627 346.783C988.627 348.463 987.853 349.89 986.307 351.063C984.787 352.21 982.8 352.783 980.347 352.783C977.893 352.783 975.92 352.17 974.427 350.943C972.96 349.717 972.16 348.023 972.027 345.863H975.787C975.84 347.09 976.267 348.077 977.067 348.823C977.893 349.543 979.013 349.903 980.427 349.903C981.867 349.903 982.987 349.597 983.787 348.983C984.613 348.37 985.027 347.597 985.027 346.663C985.027 345.703 984.707 344.943 984.067 344.383C983.427 343.823 982.627 343.437 981.667 343.223C980.707 343.01 979.653 342.757 978.507 342.463C977.387 342.17 976.347 341.863 975.387 341.543C974.427 341.197 973.627 340.61 972.987 339.783C972.347 338.957 972.027 337.917 972.027 336.663ZM1022.28 326.223C1021.8 326.703 1021.21 326.943 1020.52 326.943C1019.83 326.943 1019.24 326.703 1018.76 326.223C1018.31 325.743 1018.08 325.157 1018.08 324.463C1018.08 323.77 1018.32 323.183 1018.8 322.703C1019.28 322.223 1019.85 321.983 1020.52 321.983C1021.21 321.983 1021.8 322.223 1022.28 322.703C1022.76 323.183 1023 323.77 1023 324.463C1023 325.157 1022.76 325.743 1022.28 326.223ZM1018.68 352.423V330.463H1022.32V352.423H1018.68ZM1056.77 330.463V334.023C1058.26 331.41 1060.65 330.103 1063.93 330.103C1066.36 330.103 1068.38 330.917 1070.01 332.543C1071.64 334.143 1072.45 336.437 1072.45 339.423V352.423H1068.85V340.023C1068.85 337.81 1068.32 336.13 1067.25 334.983C1066.18 333.837 1064.7 333.263 1062.81 333.263C1060.94 333.263 1059.46 333.837 1058.37 334.983C1057.3 336.13 1056.77 337.81 1056.77 340.023V352.423H1053.13V330.463H1056.77ZM1112.25 352.783C1109.1 352.783 1106.54 351.743 1104.57 349.663C1102.59 347.583 1101.61 344.837 1101.61 341.423C1101.61 338.01 1102.61 335.277 1104.61 333.223C1106.61 331.143 1109.19 330.103 1112.37 330.103C1115.57 330.103 1118.13 331.09 1120.05 333.063C1121.99 335.01 1122.97 337.503 1122.97 340.543C1122.97 341.317 1122.91 342.037 1122.81 342.703H1105.33C1105.43 344.89 1106.11 346.623 1107.37 347.903C1108.65 349.157 1110.27 349.783 1112.25 349.783C1113.74 349.783 1114.99 349.45 1116.01 348.783C1117.05 348.117 1117.81 347.237 1118.29 346.143H1122.21C1121.51 348.063 1120.31 349.65 1118.61 350.903C1116.93 352.157 1114.81 352.783 1112.25 352.783ZM1119.17 340.063C1119.14 337.957 1118.47 336.277 1117.17 335.023C1115.86 333.743 1114.23 333.103 1112.29 333.103C1110.37 333.103 1108.77 333.73 1107.49 334.983C1106.21 336.21 1105.5 337.903 1105.37 340.063H1119.17ZM1151.5 336.663C1151.5 334.823 1152.26 333.277 1153.78 332.023C1155.33 330.743 1157.31 330.103 1159.74 330.103C1162.19 330.103 1164.11 330.73 1165.5 331.983C1166.89 333.21 1167.65 334.903 1167.78 337.063H1164.02C1163.97 335.837 1163.55 334.85 1162.78 334.103C1162.01 333.357 1160.93 332.983 1159.54 332.983C1158.18 332.983 1157.1 333.317 1156.3 333.983C1155.53 334.623 1155.14 335.463 1155.14 336.503C1155.14 337.517 1155.58 338.303 1156.46 338.863C1157.37 339.423 1158.45 339.837 1159.7 340.103C1160.98 340.343 1162.25 340.637 1163.5 340.983C1164.78 341.303 1165.86 341.93 1166.74 342.863C1167.65 343.77 1168.1 345.077 1168.1 346.783C1168.1 348.463 1167.33 349.89 1165.78 351.063C1164.26 352.21 1162.27 352.783 1159.82 352.783C1157.37 352.783 1155.39 352.17 1153.9 350.943C1152.43 349.717 1151.63 348.023 1151.5 345.863H1155.26C1155.31 347.09 1155.74 348.077 1156.54 348.823C1157.37 349.543 1158.49 349.903 1159.9 349.903C1161.34 349.903 1162.46 349.597 1163.26 348.983C1164.09 348.37 1164.5 347.597 1164.5 346.663C1164.5 345.703 1164.18 344.943 1163.54 344.383C1162.9 343.823 1162.1 343.437 1161.14 343.223C1160.18 343.01 1159.13 342.757 1157.98 342.463C1156.86 342.17 1155.82 341.863 1154.86 341.543C1153.9 341.197 1153.1 340.61 1152.46 339.783C1151.82 338.957 1151.5 337.917 1151.5 336.663ZM1197.35 336.663C1197.35 334.823 1198.11 333.277 1199.63 332.023C1201.18 330.743 1203.17 330.103 1205.59 330.103C1208.05 330.103 1209.97 330.73 1211.35 331.983C1212.74 333.21 1213.5 334.903 1213.63 337.063H1209.87C1209.82 335.837 1209.41 334.85 1208.63 334.103C1207.86 333.357 1206.78 332.983 1205.39 332.983C1204.03 332.983 1202.95 333.317 1202.15 333.983C1201.38 334.623 1200.99 335.463 1200.99 336.503C1200.99 337.517 1201.43 338.303 1202.31 338.863C1203.22 339.423 1204.3 339.837 1205.55 340.103C1206.83 340.343 1208.1 340.637 1209.35 340.983C1210.63 341.303 1211.71 341.93 1212.59 342.863C1213.5 343.77 1213.95 345.077 1213.95 346.783C1213.95 348.463 1213.18 349.89 1211.63 351.063C1210.11 352.21 1208.13 352.783 1205.67 352.783C1203.22 352.783 1201.25 352.17 1199.75 350.943C1198.29 349.717 1197.49 348.023 1197.35 345.863H1201.11C1201.17 347.09 1201.59 348.077 1202.39 348.823C1203.22 349.543 1204.34 349.903 1205.75 349.903C1207.19 349.903 1208.31 349.597 1209.11 348.983C1209.94 348.37 1210.35 347.597 1210.35 346.663C1210.35 345.703 1210.03 344.943 1209.39 344.383C1208.75 343.823 1207.95 343.437 1206.99 343.223C1206.03 343.01 1204.98 342.757 1203.83 342.463C1202.71 342.17 1201.67 341.863 1200.71 341.543C1199.75 341.197 1198.95 340.61 1198.31 339.783C1197.67 338.957 1197.35 337.917 1197.35 336.663Z" fill="white"/>
</svg>
